<svg width="36" height="37" viewBox="0 0 36 37" fill="none" xmlns="http://www.w3.org/2000/svg">
<path d="M25.1999 27.05V25.25C25.1999 24.2952 24.8206 23.3795 24.1455 22.7044C23.4704 22.0293 22.5547 21.65 21.5999 21.65H14.3999C13.4451 21.65 12.5295 22.0293 11.8543 22.7044C11.1792 23.3795 10.7999 24.2952 10.7999 25.25V27.05" stroke="#EAF5FF" stroke-width="2" stroke-linecap="round" stroke-linejoin="round"/>
<path d="M17.9999 18.05C19.9881 18.05 21.5999 16.4382 21.5999 14.45C21.5999 12.4618 19.9881 10.85 17.9999 10.85C16.0117 10.85 14.3999 12.4618 14.3999 14.45C14.3999 16.4382 16.0117 18.05 17.9999 18.05Z" stroke="#EAF5FF" stroke-width="2" stroke-linecap="round" stroke-linejoin="round"/>
<circle cx="18" cy="18.5" r="17" stroke="#EAF5FF" stroke-width="2"/>
</svg>
